<?xml-stylesheet type="text/css" href="../css/svg.css"?>
<svg xmlns="http://www.w3.org/2000/svg" viewBox="0 0 2500 595" enable-background="new 0 0 2500 595">
    <style type="text/css">
        .st0{
            fill:black;}
        
        #applelogo:hover .st0{
            fill: white;
    </style>
    <a href="https://itun.es/us/X2Zofb" target="_blank"><g id="applelogo">
    <path id="apple" d="M403.3 313.5c-.8-48.4 20.1-86 62.6-113-24-34.9-59.4-54.5-106.1-58.9-16.6-1.6-37.9 2.4-63.8 11.9-27.8 10.3-43.5 15.4-47 15.4-7.3 0-21.5-4.3-42.4-13.1-20.9-8.7-38.7-13.1-53.4-13.1-24.7.4-47.8 7.2-69 20.5-21.3 13.3-38.3 31.4-51 54.4C17 246.3 8.9 280.4 8.9 320c0 35.7 6 71.3 18 107 11.2 34.1 25.5 64 42.9 89.8 15.4 23.4 29 40.4 40.6 51.2 16.6 16.6 33.6 24.6 51.1 23.8 11.2-.4 25.9-4.6 44.1-12.5 17-7.5 34-11.3 51-11.3 15.8 0 32.3 3.8 49.3 11.3 18.9 7.9 34.4 11.9 46.4 11.9 17.8-.8 34.4-8.5 49.9-23.2 5.4-4.8 11.3-11.3 17.7-19.6 7.4-9.7 14.4-19.6 21.2-29.7 5.6-8.7 11-17.6 16-26.8 5.4-9.8 10.1-19.9 14.2-30.3 1.9-4.4 3.7-8.8 5.2-13.4s3.1-9.2 4.6-14c-14.3-6.3-27.3-15.3-38.9-26.8-25.6-25.4-38.5-56.7-38.9-93.9z" class="st0"/>
    
    <path id="apple2" d="M331.4 100.5c20.5-25.8 30.8-53.5 30.8-83.2v-6c0-2-.2-4-.6-6-14.3.8-29.5 5.4-45.6 13.7-16 8.3-29.3 18.9-39.7 31.5-20.9 25-31.3 51.7-31.3 80.3v5.6c0 1.8.2 3.7.6 5.7 32.1 3.2 60.7-10.7 85.8-41.6z" class="st0"/>
    
    <path id="m" d="M757.9 411.2h-2.8L637.4 142h-92.5v434.3h80.6V295h3.7l98.4 223.3h56.5L882.2 295h3.8v281.3h81.5V142h-91.9z" class="st0"/>
    
    <path id="u" d="M1299.1 414.2c0 58.2-34.1 90.4-84 90.4-50.3 0-84.4-31.8-84.4-90.4V140h-90v287c0 92.6 65.6 155.6 174.3 155.6 108.4 0 174.3-63 174.3-155.6V140H1299l.1 274.2z" class="st0"/>
    
    <path id="s" d="M1655.3 315.6l-64.7-14.6c-38.1-8-58.1-24.8-58.1-50 0-33.4 27.2-54.4 70.9-54.4 49.4 0 74 28.3 76.2 58.9h84.4c-.9-76.7-65-130.1-160.3-130.1-90.3 0-161.5 47.4-161.5 132.7 0 73.8 50 108.1 110 121.2l64 14.9c43.1 9.9 65 24.2 65 53.8 0 33.7-26.9 56.7-77.2 56.7-54.1 0-82.5-28.6-85-60.8h-86.9c1.3 61.4 41.9 133 167.5 133 105.6 0 170.9-52.5 170.9-137.8.1-78.9-52.7-109.8-115.2-123.5z" class="st0"/>
    
    <path id="i" d="M1854.1 142h90.6v434.3h-90.6V142z" class="st0"/>
    
    <path id="c" d="M2180.9 199c53.7 0 82.1 41.4 82.1 85.9h86.9v-9.2c0-84-64.1-154-169.7-154-113.1 0-180.6 74.4-180.6 201.4v49c0 126.9 66.9 200.4 180.3 200.4 108.4 0 170-71 170-149.9v-9.5H2263c0 44.9-27.8 82.1-81.5 82.1-55 0-90-39.1-90-122.8v-49c0-83.3 35.3-124.4 89.4-124.4z" class="st0"/>
</g></a>
</svg>