<?xml-stylesheet type="text/css" href="../css/svg.css"?>
<svg xmlns="http://www.w3.org/2000/svg" viewBox="0 0 160 300" enable-background="new 0 0 160 300">
    
    <style type="text/css">
        
        .st0 {
            fill:#0C4FAF;
        } 
        .st1 {
            fill:#BC2A08;
        }
        
    </style>
    
    <path id="blue" d="M40.2 300c8.7-34.2 20.4-72.2 36.6-113 17.1-43 35.8-80.8 53.9-113l6-12.9c-23.2 6.4-75.1 18.7-75.2 19.2C66.9 65.8 90.2 0 91.2 0 69 0 46.8 0 24.7 0 18.8 47.8 12.8 95.6 6.9 143.5c25-6.6 50-13.1 75-19.7C68 182.6 54.1 241.3 40.2 300z" class="st0"/>
    
    <path id="orange" d="M40.2 300S148.1 74.1 148.1 74l6-12.9C130.8 67.6 79 79.9 78.8 80.4 84.2 65.8 107.6 0 108.6 0 86.4 0 64.2 0 42.1 0l-6.8 31L6.9 143.5l75-19.7L40.2 300z" class="st1"/>
</svg>