<?xml-stylesheet type="text/css" href="../css/svg.css"?>
<svg xmlns="http://www.w3.org/2000/svg" viewBox="0 0 100 100" enable-background="new 0 0 100 100">
    
    <style type="text/css">
        .st0{
            fill:#FFFFFF;
        }
    </style>
    
    <path d="M42 1.1c.2.1.2.3.2.3-.3 3.2-.6 12.5 3.7 16.9 5.2 5.4 38.5 40 41.8 43.3 3.6 3.6 5.2 8.9 2.9 13.9-1.6 3.2-4.6 5.4-7.5 5.5-2 .1-10.7.1-10.7.1v-6.2s3 0 5.7.1c5.8.2 7.7-7.8.9-10.7-6.4-2.8-43.8-14.3-48.2-15.5-4.3-1.2-14-2.7-21.5 4.8-.4.4-.6.4-.8.3s-.1-.3 0-.6L41.7 1.2s0-.2.3-.1zM69.8 84H27.9V69.1h41.9V84zm4.1 3.6l10 11.4H13.8l10.1-11.4m0 0h50" class="st0"/>
</svg>