<svg version="1.1" id="Layer_1" xmlns="http://www.w3.org/2000/svg" xmlns:xlink="http://www.w3.org/1999/xlink" x="0px" y="0px"
     
	 viewBox="0 0 70 200" style="enable-background:new 0 0 70 200;">
    
<style type="text/css">
	.st0{fill:#B00044;}
	.st1{fill:#0C6868;}
	.st2{fill:none;stroke:#FFFFFF;stroke-width:0.75;stroke-miterlimit:10;}
	.st3{fill:#FFFFFF;}
	.st4{fill:none;stroke:#B00044;stroke-width:3;stroke-miterlimit:10;}
</style>
    
    
<path class="st0" d="M28.8,5.9c0.2-0.3,0.9-0.9,2-1.2c1.3-0.3,2.4,0.3,2.7,0.4c2.4,3.5,4.2,6.5,5.4,8.5c3.7,6.5,12.2,21.9,13.4,42.3
	c0.2,2.7,0.2,5,0.1,6.3c-1,2.4-2.5,5.1-5,7.7c-0.4,0.4-0.8,0.8-1.2,1.1l2.2,115.3H26.9c0,0,3.5-114.5,2.6-114.3
	c-0.5,0.1-2.3-3.4-4-6.9c-1.4-2.8-2.6-5.2-3.4-7.1c-8.8-3.8-10.6-5.3-10.4-6c0.3-1.1,5.1,0.4,9.4-1.7c4.5-2.2,6.6-7.3,7.7-11.2
	c0.5-5-0.7-8.1-1.9-10c-1.2-2-3.8-4.8-3.9-9c0-0.2,0-0.4,0-0.5"/>
    
    
<path class="st1" d="M29.7,74h16.4v-1H29.7V74z M29.5,88.8h16.9v-1H29.5C29.5,87.8,29.5,88.8,29.5,88.8z M29.2,102.2h17.5v-1H29.2
	C29.2,101.2,29.2,102.2,29.2,102.2z M28.9,115.4h18v-1h-18C28.9,114.4,28.9,115.4,28.9,115.4z M28.7,128.4h18.5v-1H28.7
	C28.7,127.4,28.7,128.4,28.7,128.4z M28.5,139.7h18.8v-1H28.5C28.5,138.7,28.5,139.7,28.5,139.7z M28.2,151h19.3v-1H28.2
	C28.2,150,28.2,151,28.2,151z M28.1,162h19.7v-1H28.1C28.1,161,28.1,162,28.1,162z M27.9,172H48v-1H27.9C27.9,171,27.9,172,27.9,172
	z M27.7,180.8h20.4v-1H27.7C27.7,179.8,27.7,180.8,27.7,180.8z"/>
    
    
<circle class="st0" cx="27.7" cy="191.8" r="1.2"/>
<circle class="st0" cx="31.8" cy="191.8" r="1.2"/>
<circle class="st0" cx="35.8" cy="191.8" r="1.2"/>
<circle class="st0" cx="39.9" cy="191.8" r="1.2"/>
<circle class="st0" cx="44" cy="191.8" r="1.2"/>
<circle class="st0" cx="48.1" cy="191.8" r="1.2"/>
    
<path id="string1" class="st2" d="M31.3,13.8L31,186.4"/>
    
<path class="st3" d="M35.5,12l-3.4,1.2l0.3,1.2l3.4-1.2L35.5,12z M35.8,14.5l1.2-0.4c1-0.8,0.3-3.3-0.9-3.3l-1.2,0.4
	C34.3,11.8,35,14.3,35.8,14.5z M32.4,12.4c-0.7-0.1-1.4,0.5-1.4,1.3c-0.1,0.8,0.4,1.6,1.2,1.7c0.7,0.1,1.4-0.5,1.4-1.3
	S33.1,12.4,32.4,12.4z M32.3,12.9c-0.4,0-0.8,0.3-0.9,0.8c-0.1,0.5,0.2,0.9,0.7,1c0.4,0.1,0.8-0.3,0.9-0.8
	C33,13.4,32.8,13,32.3,12.9z M35.8,14.1l0.9-0.3c0.4-0.3,0.4-1.1,0.2-1.7l-1.4,0.5L35,12.8C35.2,13.4,35.5,14,35.8,14.1z"/>
    
<path id="string2" class="st2" d="M33.9,20.2l-0.3,166.1"/>
    
<path class="st3" d="M39.1,18.7L35,19.9l0.4,1.2l4.1-1.2L39.1,18.7z M39.4,21.2l1.4-0.4c1.2-0.8,0.4-3.3-1-3.3l-1.4,0.4
	C37.6,18.4,38.4,20.9,39.4,21.2z M35.2,18.9c-0.8-0.1-1.6,0.5-1.7,1.3c-0.1,0.8,0.5,1.6,1.4,1.7c0.9,0.1,1.6-0.5,1.7-1.3
	S36.1,19,35.2,18.9z M35.2,19.6c-0.5,0-1,0.3-1,0.8c-0.1,0.5,0.3,0.9,0.8,1c0.5,0,1-0.3,1-0.8C36.1,20,35.8,19.6,35.2,19.6z
	 M39.4,20.7l1.1-0.3c0.5-0.3,0.5-1.1,0.3-1.7l-1.6,0.5l-0.7,0.2C38.7,20.1,39,20.7,39.4,20.7z"/>
    
<path id="string3" class="st2" d="M36.6,27.3l-0.7,159.1"/>
    
<path class="st3" d="M42.2,25.8L37.7,27l0.4,1.2l4.4-1.2L42.2,25.8z M42.5,28.3l1.5-0.4c1.3-0.8,0.4-3.3-1.1-3.3L41.4,25
	C40.6,25.6,41.5,28.1,42.5,28.3z M38.1,26.1c-0.9-0.1-1.8,0.5-1.9,1.3c-0.1,0.8,0.6,1.6,1.5,1.7c1,0.1,1.8-0.5,1.9-1.3
	S39.1,26.2,38.1,26.1z M38,26.7c-0.6,0-1,0.3-1.1,0.8c-0.1,0.5,0.3,0.9,0.9,1c0.6,0,1-0.3,1.1-0.8C39,27.2,38.6,26.8,38,26.7z
	 M42.6,27.9l1.2-0.3c0.6-0.3,0.6-1.1,0.3-1.7l-1.8,0.5l-0.8,0.2C41.8,27.2,42.2,27.8,42.6,27.9z"/>
    
<path id="string4" class="st2" d="M39.2,34.1l-0.3,152.2"/>
    
<path class="st3" d="M44.7,32.5l-4.5,1.2l0.4,1.2l4.5-1.2L44.7,32.5z M45.1,34.9l1.6-0.4c1.3-0.8,0.4-3.3-1.1-3.3l-1.6,0.4
	C43.2,32.3,44.1,34.8,45.1,34.9z M40.6,32.8c-0.9-0.1-1.8,0.5-1.9,1.3c-0.1,0.8,0.6,1.6,1.6,1.7c1,0.1,1.8-0.5,1.9-1.3
	C42.3,33.6,41.6,32.9,40.6,32.8z M40.6,33.4c-0.6,0-1.1,0.3-1.1,0.8c-0.1,0.5,0.3,0.9,0.9,1c0.6,0,1.1-0.3,1.1-0.8
	C41.5,33.8,41.1,33.4,40.6,33.4z M45.1,34.6l1.2-0.3c0.6-0.3,0.6-1.1,0.3-1.7l-1.8,0.5l-0.8,0.2C44.3,33.9,44.7,34.5,45.1,34.6z"/>
    
<path id="string5" class="st2" d="M41.6,41.4l-0.6,145"/>
    
<path id="string6" class="st2" d="M44,49.2l0.7,137.1"/>
    
<path class="st3" d="M46.6,39.6l-4,1.2l0.4,1.2l4-1.2L46.6,39.6z M46.9,42.1l1.4-0.4c1.2-0.8,0.4-3.3-1-3.3l-1.4,0.4
	C45.2,39.3,46,41.9,46.9,42.1z M42.9,39.9c-0.8-0.1-1.6,0.5-1.7,1.3c-0.1,0.8,0.5,1.6,1.4,1.7c0.9,0.1,1.6-0.5,1.7-1.3
	C44.4,40.7,43.8,40,42.9,39.9z M42.9,40.5c-0.5,0-1,0.3-1,0.8s0.3,0.9,0.8,1c0.5,0,1-0.3,1-0.8C43.8,41,43.4,40.6,42.9,40.5z
	 M47,41.7l1.1-0.3c0.5-0.3,0.5-1.1,0.3-1.7l-1.6,0.5L46,40.4C46.3,41.1,46.6,41.7,47,41.7z M48.8,47.5l-4,1.2l0.4,1.2l4-1.2
	L48.8,47.5z M49,50l1.4-0.4c1.2-0.8,0.4-3.3-1-3.3L48,46.6C47.4,47.3,48.2,49.8,49,50z M45.1,47.9c-0.8-0.1-1.6,0.5-1.7,1.3
	c-0.1,0.8,0.5,1.6,1.4,1.7c0.8,0.1,1.6-0.5,1.7-1.3C46.5,48.7,46,48,45.1,47.9z"/>
    
<path class="st4" d="M22.9,186.5l30.8,0.2c2.4,1.1,3.8,3.6,3.5,6c-0.4,3-3.3,4.3-3.5,4.3c-10.6,0-21.2,0.1-31.8,0.1
	c-2-1-3.2-3-3.2-5.1C18.6,189.6,20.3,187.3,22.9,186.5z"/>
</svg>
