<?xml-stylesheet type="text/css" href="../css/svg.css"?>
<svg xmlns="http://www.w3.org/2000/svg" viewBox="0 0 1400 1000" enable-background="new 0 0 1400 1000">
    
    <style type="text/css">
        .st0{fill:#B9949C;} 
        .st1{fill:none;stroke:#B9949C;stroke-width:4;stroke-miterlimit:10;}
    </style>
    
    <g id="hat">
        <path d="M235.9 547.5c260.5 48.7 321.7-29.6 503.3 9.4 182.2 39.2 212 137.6 343.8 114.7 102-17.7 193.3-96 190.2-148-2.6-43.2-167.9-88.1-329-85.2 0 0 7.2-17.6 4.1-30.7-3.1-13.1-1-59.4-1.7-78.2-.7-18.8-6.9-86.9-211.9-128.7-140-28.5-190.5 54-197.6 71.3-14.6 35.8-59.8 113.3-58.3 142.6 0 0-97 5.5-194.3 18-61.2 7.9-195.8 32-196.1 60.8-.2 26.4 113.1 47.6 147.5 54zm577.5-107.4s-86.6-35.4-150.9-36.4c-64.2-1-167.4 4-167.4 4s178.7-51.6 318.3 32.4zm-574 8.1s149.3-6.2 210.5 1.8c61.2 8 140.8-4.7 173.7 1.9 32.9 6.6 226.9-23.5 306.2-11.3 0 0-172.4 13.8-207.4 12.9-35-.8-90.1 10.3-119.7 8.4-29.5-1.9-318.5-12.4-363.3-13.7z" class="st0"/>
        
        <path id="outline" d="M495.8 558.5c-1 2.6-2.5 5.7-4.7 9.1-1.9 2.9-3.8 5.8-7.2 8.5-1.4 1.1-1.7 1.1-5.1 3.5 0 0-2.8 2-6.1 4.6-6.8 5.3-13.3 12.1-22.3 19.3-11.7 9.4-17.5 14.2-19.8 15.6-.9.6-3.7 2.3-5.8 5.6-1.5 2.4-2.1 4.8-2.3 6.1 0 0-.5 3.4.4 7 1.8 7.3 9.8 15.6 18.1 18.2 1.6.5 5.6 1.5 8.6 5.1.8 1 1.3 1.5 1.6 2.3 1.5 4-2.7 8.8-13 22.3-4.1 5.4-4.5 6-4.6 7.2-.7 8.9 15.9 16.1 14.2 19.8-.3.6-.7.6-2.3 1.2-1.5.6-9 3.9-11.1 9.8-1.1 3.2-.6 7.4 1.6 10 1.9 2.2 3.3 1.3 6 3.5 4.7 3.9 5 10.5 5.1 11.6.2 4.6-1.5 8.1-2.3 9.8-4.4 9.8-4.1 22.9-1.6 29.7 5.2 14.1 27.1 18.1 40.4 20.5 11.1 2 13.2.6 35.6 1.6 22.9 1 34.4 1.5 42.3 4.2 8.7 3 27.5 12.2 41.8 48.6" class="st1"/>
    </g>
</svg>