<?xml-stylesheet type="text/css" href="../css/svg.css"?>
<svg xmlns="http://www.w3.org/2000/svg" viewBox="0 0 1400 980">
    <style>.st0{fill:#B00044}</style>
    
    <g id="johnwayne">
        <path id="tophat" d="M417.7 465.5c-8.8-60.8-31.9-183.7 6.9-242.1 34.5-52 164.5-80.2 220.8-93.6 79.3-18.8 219.4-47.9 290 12.2 77.5 65.9 68.2 232.8 76.7 323.5H417.7z" class="st0"/>
        
        <path id="lefthat" d="M880.5 657c4.7 22.1-217.3 92.8-233.5 97-57.5 15-116.8 26-176.2 30.5-100 7.7-493.4-15.8-387.6-209.2 76-138.9 251.9-61.5 360.6-23.9 62.4 21.5 125.3 41.6 188.7 59.7 19.8 5.7 248.6 48.9 248 45.9z" class="st0"/>
        
        <path id="righthat" d="M533.4 529.3c-1 4.5 389.6 3.3 410.5 2.5 83-3.5 164.7-11.9 247.1-22.3 36.1-4.6 176.7-21.4 137.1 56.1-22.4 43.8-114.2 48-154.8 54.2-82.8 12.6-163.5 17.6-247.1 10.7-67.6-5.6-135.8-15.5-201.2-33.7-23.8-6.6-193.9-57.1-191.6-67.5z" class="st0"/>
    </g>
</svg>