<?xml version="1.0" encoding="utf-8"?>
<svg version="1.1" id="sound_button" xmlns="http://www.w3.org/2000/svg" xmlns:xlink="http://www.w3.org/1999/xlink" x="0px" y="0px"
	 viewBox="0 0 512 512" style="enable-background:new 0 0 512 512;" xml:space="preserve">
<style type="text/css">
	.st0{fill:#FFFFFF;stroke:#000000;stroke-miterlimit:10;}
</style>
<g>
	<g>
		<path class="st0" d="M56.2,295.8V183.4c0-15.5-12.6-28.1-28.1-28.1C12.6,155.3,0,167.9,0,183.4v112.4c0,15.5,12.6,28.1,28.1,28.1
			C43.6,323.9,56.2,311.3,56.2,295.8z"/>
		<path class="st0" d="M146.7,412.9V85.1c0-15.5-12.6-28.1-28.1-28.1S90.5,69.6,90.5,85.1v327.8c0,15.5,12.6,28.1,28.1,28.1
			S146.7,428.4,146.7,412.9z"/>
		<path class="st0" d="M237.3,364.5V183.4c0-15.5-12.6-28.1-28.1-28.1s-28.1,12.6-28.1,28.1v181.1c0,15.5,12.6,28.1,28.1,28.1
			S237.3,380,237.3,364.5z"/>
		<path class="st0" d="M483.9,211.5c-15.5,0-28.1,12.6-28.1,28.1v156.1c0,15.5,12.6,28.1,28.1,28.1c15.5,0,28.1-12.6,28.1-28.1
			V239.6C512,224.1,499.4,211.5,483.9,211.5z"/>
		<path class="st0" d="M393.4,14.8c-15.5,0-28.1,12.6-28.1,28.1v426.2c0,15.5,12.6,28.1,28.1,28.1c15.5,0,28.1-12.6,28.1-28.1V42.9
			C421.5,27.4,408.9,14.8,393.4,14.8z"/>
		<path class="st0" d="M302.8,423.8c15.5,0,28.1-12.6,28.1-28.1V124.9c0-15.5-12.6-28.1-28.1-28.1c-15.5,0-28.1,12.6-28.1,28.1
			v270.8C274.7,411.2,287.3,423.8,302.8,423.8z"/>
	</g>
</g>
</svg>
