<?xml-stylesheet type="text/css" href="../css/svg.css"?>
<svg version="1.1" id="spotifylogo" xmlns="http://www.w3.org/2000/svg" xmlns:xlink="http://www.w3.org/1999/xlink" x="0px" y="0px"
	 viewBox="0 0 9772.4 2931">
<style type="text/css">
	.st0{fill:#fffff;}
    .spotify_logo:hover {fill: #2EBD59;}
	.st1{fill:#04343E;}
</style>
    <a href="https://open.spotify.com/user/ladygaga_spotify/playlist/2BffhzeQLVNUREtdgdmkli" target="_blank"><g class="spotify_logo">
<path id="circle" class="st0" d="M1465.5,0C656.1,0,0,656.1,0,1465.5S656.1,2931,1465.5,2931S2931,2274.9,2931,1465.5
	C2931,656.2,2274.9,0.1,1465.5,0z"/>
<path id="firststripe" class="st1" d="M2099.3,2165.5c-26.3,43.2-82.6,56.7-125.6,30.4c-344.1-210.3-777.3-257.8-1287.4-141.3
	c-49.2,11.3-98.2-19.5-109.4-68.7c-11.3-49.2,19.4-98.2,68.7-109.4c558.2-127.6,1037.1-72.7,1423.4,163.3
	C2112,2066.3,2125.7,2122.5,2099.3,2165.5z"/>
<path id="secondstripe" class="st1" d="M2283.3,1796c-33.1,53.8-103.5,70.6-157.2,37.6c-393.8-242.1-994.4-312.2-1460.3-170.8
	c-60.4,18.3-124.2-15.8-142.6-76.1c-18.2-60.4,15.9-124.1,76.2-142.5c532.2-161.5,1193.9-83.3,1646.2,194.7
	C2299.4,1672.1,2316.4,1742.4,2283.3,1796L2283.3,1796z"/>
<path id="thirdstripe" class="st1" d="M2301.7,1382.7c-472.4-280.5-1251.6-306.3-1702.6-169.5c-72.4,22-149-18.9-170.9-91.3
	s18.9-149,91.4-171c517.7-157.1,1378.2-126.8,1922,196c65.1,38.7,86.5,122.8,47.9,187.8C2451,1399.9,2366.6,1421.4,2301.7,1382.7z"
	/>
<path id="s_spotify" class="st0" d="M3998.1,1344.6c-253-60.3-298.1-102.7-298.1-191.7c0-84.1,79.2-140.6,196.9-140.6
	c114.1,0,227.2,43,345.9,131.4c3.6,2.7,8.1,3.7,12.5,3s8.3-3.1,10.9-6.8l123.5-174.2c5.1-7.2,3.7-17.1-3.1-22.5
	c-141.2-113.3-300.1-168.4-486-168.4c-273.2,0-464,164-464,398.5c0,251.6,164.6,340.6,449.1,409.4c242.1,55.8,283,102.5,283,186
	c0,92.6-82.6,150.1-215.6,150.1c-147.7,0-268.2-49.8-402.9-166.5c-3.3-2.9-7.9-4.2-12.2-4c-4.5,0.4-8.5,2.4-11.4,5.8L3388.1,1919
	c-5.8,6.8-5.1,17.1,1.6,23c156.8,140,349.6,213.9,557.8,213.9c294.4,0,484.6-160.9,484.6-409.8c0.5-210.2-125.3-326.6-433.5-401.5
	L3998.1,1344.6L3998.1,1344.6z"/>
<g id="p_spotify">
	<path class="st0" d="M5138.5,1096.5c-127.6,0-232.3,50.3-318.6,153.2v-115.9c0-9.2-7.4-16.6-16.6-16.6h-226.6
		c-9.2,0-16.6,7.5-16.6,16.6v1288c0,9.2,7.4,16.6,16.6,16.6h226.6c9.1,0,16.6-7.5,16.6-16.6v-406.6c86.3,96.9,191,144.2,318.6,144.2
		c237.1,0,477.1-182.5,477.1-531.4c0.4-349-239.8-531.6-476.9-531.6L5138.5,1096.5L5138.5,1096.5z"/>
	<path class="st1" d="M5352.2,1628.1c0,177.7-109.4,301.7-266.2,301.7c-154.9,0-271.8-129.6-271.8-301.7
		c0-172,116.9-301.7,271.8-301.7C5240.2,1326.4,5352.2,1453.3,5352.2,1628.1L5352.2,1628.1z"/>
</g>
<g id="o">
	<path class="st0" d="M6247.4,1095.6c-305.4,0-544.6,235.1-544.6,535.4c0,297,237.6,529.6,540.8,529.6
		c306.4,0,546.4-234.3,546.4-533.4C6790.1,1329.1,6551.8,1095.6,6247.4,1095.6L6247.4,1095.6z"/>
	<path class="st1" d="M6237.4,1930.6c-162.4,0-284.9-130.5-284.9-303.5c0-173.8,118.2-299.8,281.1-299.8
		c163.5,0,286.7,130.5,286.7,303.6C6520.4,1804.6,6401.4,1930.6,6237.4,1930.6L6237.4,1930.6z"/>
</g>
<path id="t" class="st0" d="M7464.5,1131.9h-249.3V877c0-9.1-7.4-16.6-16.5-16.6h-226.5c-9.2,0-16.6,7.5-16.6,16.6v254.9h-108.9
	c-9.1,0-16.5,7.5-16.5,16.6v194.7c0,9.1,7.4,16.6,16.5,16.6h108.9v503.8c0,203.6,101.3,306.8,301.2,306.8
	c81.3,0,148.7-16.8,212.2-52.8c5.2-2.9,8.4-8.5,8.4-14.4V1918c0-5.7-3-11.1-7.9-14.1c-4.9-3.1-11.1-3.3-16.1-0.8
	c-43.6,22-85.8,32.1-133,32.1c-72.7,0-105.1-33-105.1-107V1360h249.3c9.2,0,16.5-7.5,16.5-16.6v-194.7c0.4-9.2-7-16.6-16.3-16.6
	L7464.5,1131.9L7464.5,1131.9z"/>
<g id="i_spotify">
	<path class="st0" d="M7906.3,1146.1h-226.6c-9.2,0-16.6,7.5-16.6,16.6v988.5c0,9.2,7.5,16.6,16.6,16.6h226.6
		c9.1,0,16.6-7.5,16.6-16.6v-988.4C7923,1153.7,7915.6,1146.2,7906.3,1146.1C7906.4,1146.2,7906.3,1146.2,7906.3,1146.1z
		 M7794.3,696.1c-89.8,0-162.6,72.7-162.6,162.4c0,89.8,72.9,162.6,162.6,162.6s162.5-72.7,162.5-162.6
		C7956.8,768.7,7884,696.1,7794.3,696.1z"/>
</g>
<path id="fy" class="st0" d="M8442.7,1146.7v-31.3c0-92.1,35.3-133.2,114.5-133.2c47.2,0,85.2,9.4,127.7,23.6
	c5.2,1.6,10.7,0.8,14.9-2.3c4.4-3.1,6.8-8.2,6.8-13.5V799c0-7.3-4.7-13.8-11.7-15.9c-44.9-13.4-102.3-27.1-188.3-27.1
	c-209.3,0-319.9,117.8-319.9,340.7v47.9h-108.9c-9.1,0-16.6,7.5-16.6,16.6V1357c0,9.1,7.5,16.6,16.6,16.6h108.9v777.2
	c0,9.2,7.4,16.6,16.5,16.6h226.6c9.2,0,16.6-7.5,16.6-16.6v-777.1H8658l324,777c-36.8,81.6-73,97.9-122.3,97.9
	c-39.9,0-82-11.9-124.9-35.4c-4-2.2-8.8-2.6-13.2-1.2c-4.3,1.5-8,4.7-9.8,8.9l-76.8,168.5c-3.7,8-0.5,17.3,7.1,21.4
	c80.2,43.4,152.5,61.9,242,61.9c167.3,0,259.8-77.9,341.3-287.6l393.1-1015.7c2-5.1,1.4-10.9-1.8-15.4c-3.1-4.5-8.1-7.2-13.6-7.2
	h-235.9c-7.1,0-13.4,4.5-15.7,11.1L9109.8,1848l-264.7-690.6c-2.4-6.4-8.6-10.7-15.5-10.7L8442.7,1146.7L8442.7,1146.7z"/>
        </g></a>
</svg>
